PathFileType	4	(X/Y/Z)	pose_F01_0-96.trc
DataRate	CameraRate	NumFrames	NumMarkers	Units	OrigDataRate	OrigDataStartFrame	OrigNumFrames
30	30	10	21	m	30	36	96
Frame#	Time	CHip			RHip			RKnee			RAnkle			RBigToe			RSmallToe			RHeel			LHip			LKnee			LAnkle			LBigToe			LSmallToe			LHeel			Neck			Nose			RShoulder			RElbow			RWrist			LShoulder			LElbow			LWrist			
		X1	Y1	Z1	X2	Y2	Z2	X3	Y3	Z3	X4	Y4	Z4	X5	Y5	Z5	X6	Y6	Z6	X7	Y7	Z7	X8	Y8	Z8	X9	Y9	Z9	X10	Y10	Z10	X11	Y11	Z11	X12	Y12	Z12	X13	Y13	Z13	X14	Y14	Z14	X15	Y15	Z15	X16	Y16	Z16	X17	Y17	Z17	X18	Y18	Z18	X19	Y19	Z19	X20	Y20	Z20	X21	Y21	Z21	
36	1.2	-0.27749576523746056	1.8669304457983977	-0.595145350246616	-0.2833577933851706	1.8636482401285923	-0.5332240375514763	-0.2519977620596197	1.7069476291529249	-0.5017002586917485	-0.29275629158682925	1.556563569451173	-0.4336830566168926	-0.24246849119877895	1.5271474572825077	-0.42722401587306535	-0.2531264603378366	1.5294785755603502	-0.3996023757922863	-0.34858848952811816	1.5533060781926975	-0.4008680551061525	-0.27163521695674325	1.8699109754619727	-0.6514958075352602	-0.2704682425276472	1.7087371237146884	-0.6560495100605777													-0.28227744873862	2.04240008297531	-0.6044915818886228	-0.2398729755797226	2.1088589010825474	-0.6007454798782671	-0.29352791679181267	2.041097060645122	-0.5202792857240781	-0.24016481152350655	2.0299441353097505	-0.44445163583335834	-0.22372253873513764	2.1098111241506974	-0.4702651665944273	-0.2709724761868511	2.044003903983577	-0.686283906321795	-0.22966824861649035	1.983792459155032	-0.7450554235881125	-0.18966090315782327	2.0322504152816148	-0.7612850956704265
37	1.2333333333333334	-0.2793679384421275	1.869476732481594	-0.6018830226838309	-0.2864618639484266	1.8675286490192995	-0.543220563975623	-0.25047296551653003	1.714369292904201	-0.5130797252900006	-0.29275629158682925	1.556563569451173	-0.4336830566168926	-0.2424478556260861	1.527470741066419	-0.42696233710320414	-0.2518062397892571	1.5275256241446424	-0.405133878895776	-0.34858848952811816	1.5533060781926975	-0.4008680551061525	-0.2732008984705642	1.872234519556602	-0.6665551458367572	-0.2711640360954594	1.7127075834860717	-0.6599034093723884													-0.2865555264867769	2.0454757594105857	-0.6099923931089491	-0.24082591536677025	2.1077225768343735	-0.6032515539498805	-0.29784129588404584	2.0463663931692864	-0.5263513998754794	-0.24566842109209494	2.0313216977122153	-0.4542486086450508	-0.2326489571104494	2.104275341534472	-0.48476671929493914	-0.2729088691811836	2.0469319294323878	-0.6931643334070718	-0.23075386816164628	1.9911249152258026	-0.7501387460602764	-0.1927736169589363	2.0491773614309023	-0.7596545659304794
38	1.2666666666666666	-0.2803539996932012	1.8761166863222185	-0.6057305519788602	-0.28618946010910484	1.874037076549002	-0.544257607756519	-0.25967749831673365	1.7171329037188114	-0.5079012572591821	-0.29275629158682925	1.556563569451173	-0.4336830566168926	-0.24242722005339323	1.5277940248503303	-0.4267006583333429	-0.2532547786641019	1.5304547859063642	-0.3993385230407815	-0.34858848952811816	1.5533060781926975	-0.4008680551061525	-0.27538640309156315	1.8795241783148426	-0.6651087599553595	-0.27185982966327166	1.7166780432574549	-0.6637573086841992													-0.28943341774972425	2.047976192536691	-0.61131025529731	-0.24490377976712555	2.1073596332394713	-0.6088667538251495	-0.29986581002133517	2.0477998653150427	-0.5329592599776842	-0.2512127181357478	2.0407997602517503	-0.4497357616422865	-0.24805519748671467	2.11302174500657	-0.49422313541413754	-0.2730513719786109	2.048315744419603	-0.693567465207999	-0.22688320891518546	2.00460769753526	-0.7490821444306043	-0.19588633076004935	2.0661043075801895	-0.7580240361905325
39	1.3	-0.280233862754486	1.879061335159186	-0.6060712703972173	-0.2860871508190535	1.8772042339556052	-0.5446288809331133	-0.26477019684501946	1.7247014883638234	-0.5078601863485119	-0.29275629158682925	1.556563569451173	-0.4336830566168926	-0.2424065844807004	1.5281173086342417	-0.42643897956348165	-0.25375507782282875	1.5272660994317215	-0.4028914608034206	-0.34858848952811816	1.5533060781926975	-0.4008680551061525	-0.27525099034431366	1.8821678884373998	-0.6654340349085751	-0.2742918302894209	1.7183439293042415	-0.6623073008121297													-0.2902503287397096	2.0518327345057794	-0.6146412233617314	-0.2496238671364004	2.113361705285157	-0.6155458924014487	-0.29985101075139337	2.0502099165007386	-0.5335400621343345	-0.25097448017665835	2.04793633282865	-0.4506498718292141	-0.254607991952361	2.1147868167503114	-0.5026358509585761	-0.27566069343565713	2.0533697204273547	-0.7031729650692543	-0.22069495869302794	2.0108764751066612	-0.7394832167529667	-0.2004406100498871	2.076721390623984	-0.7561023223011367
40	1.3333333333333333	-0.2801011295539814	1.8774450284285644	-0.6060200535403787	-0.28696958660150207	1.87588779339462	-0.5475111035092675	-0.276269125812646	1.7196513666365307	-0.49949698508676477	-0.29275629158682925	1.556563569451173	-0.4336830566168926	-0.24238594890800755	1.5284405924181528	-0.42617730079362043	-0.25431871900043856	1.5299735804593997	-0.40260778531402813	-0.34858848952811816	1.5533060781926975	-0.4008680551061525	-0.2730216755146599	1.8800431004487952	-0.6675803317107253	-0.2767238309155701	1.7200098153510281	-0.6608572929400603													-0.2892265307228216	2.052076803870929	-0.6198585047132208	-0.25766237672719194	2.113392411945177	-0.61509977798892	-0.29796696110635945	2.0495618829555293	-0.5439105145400859	-0.26463478337769814	2.049293680051072	-0.4438566785821415	-0.25378241627054965	2.1060721031328007	-0.5128132439140792	-0.2763699320279419	2.0560196076555646	-0.7060700160231941	-0.22007993486123018	2.0208381926657135	-0.7402973334775284	-0.21380791899837193	2.082473049308869	-0.7431103824803751
41	1.3666666666666667	-0.27902154626459325	1.8792693675080288	-0.6029704112503302	-0.2859501817242972	1.8784732911641995	-0.5446136030886228	-0.2789341317575309	1.727998751759193	-0.5018813236141781	-0.29275629158682925	1.556563569451173	-0.4336830566168926	-0.2423653133353147	1.528763876202064	-0.4259156220237592	-0.254122417452875	1.5291333766381718	-0.40261045916152893	-0.34858848952811816	1.5533060781926975	-0.4008680551061525	-0.27198705786167404	1.8827005471472018	-0.6644664198092557	-0.27915583154171936	1.7216757013978146	-0.6594072850679908													-0.29122191362930683	2.052064184697209	-0.6177716932847479	-0.25647881456867067	2.114933385761442	-0.6201418642997841	-0.29997872019780414	2.049304844298783	-0.5419703323496283	-0.2626561277460828	2.0497372099246762	-0.4452045048892935	-0.261003301374165	2.113260817857257	-0.5118739186041049	-0.2764392111829194	2.0535883892581603	-0.7056853594915169	-0.21592683928531192	2.023581319465488	-0.7362844564841805	-0.2159106706278188	2.0869795288612267	-0.7413889502105497
42	1.4	-0.27922569934216557	1.8818083834836137	-0.6032873589152437	-0.28628773395844276	1.878348853839659	-0.5446671585955649	-0.28117839104901454	1.7306753734978015	-0.49963950613701125	-0.29275629158682925	1.556563569451173	-0.4336830566168926	-0.2423653133353147	1.528763876202064	-0.4259156220237592	-0.25341345466371856	1.5234216233441156	-0.4022587160007926	-0.34858848952811816	1.5533060781926975	-0.4008680551061525	-0.272286553810721	1.8838860858518447	-0.664633361415837	-0.2815878321678686	1.7233415874446012	-0.6579572771959215													-0.29138318967813437	2.0512546018245774	-0.6177756491319495	-0.26065944225723214	2.114834432651439	-0.6159318460759797	-0.3031234278159328	2.048165427992379	-0.5428878201258532	-0.2580747830689553	2.0607523980553957	-0.44745208173742396	-0.2665877539370022	2.12768728295039	-0.5065347351799859	-0.2775165766298831	2.05456186018897	-0.7005762441653004	-0.217219580552087	2.0234670853747656	-0.7310843829087137	-0.22028594446539834	2.0854904325192467	-0.7358375873874602
43	1.4333333333333333	-0.2796390517060569	1.8761887400203017	-0.6027618633345614	-0.2865083051565218	1.8743518868905344	-0.5441064156233905	-0.28219447439432493	1.7229883041338259	-0.49792436106875704	-0.29275629158682925	1.556563569451173	-0.4336830566168926	-0.2423653133353147	1.528763876202064	-0.4259156220237592	-0.2509237453291323	1.5285644512865633	-0.40172553106673	-0.34858848952811816	1.5533060781926975	-0.4008680551061525	-0.2733071470430998	1.877643715263899	-0.6672139762518265	-0.2840198327940178	1.7250074734913878	-0.656507269323852													-0.2944546702304123	2.0500354805748615	-0.6187417546724591	-0.26068098250508226	2.1149596735610583	-0.6159213554423313	-0.3051849860471288	2.048070235596976	-0.5406934893504166	-0.26262491068253463	2.04871920453356	-0.4446065081750141	-0.27057940052379437	2.1165053689157265	-0.5082439612908598	-0.2786197325250626	2.0533739824610144	-0.7036295054656716	-0.21649081892816924	2.024911417912521	-0.7283661831139023	-0.22255687038814187	2.088875086226032	-0.7343695632376203
44	1.4666666666666666	-0.28170542291886574	1.873384106283922	-0.600172671555401	-0.28976374689501183	1.869566456703719	-0.536205325244744	-0.2806989645849688	1.722501076726348	-0.4949212533238124	-0.29275629158682925	1.556563569451173	-0.4336830566168926	-0.2423653133353147	1.528763876202064	-0.4259156220237592	-0.2510149561947441	1.5264713103907879	-0.4011239363362568	-0.34858848952811816	1.5533060781926975	-0.4008680551061525	-0.2726080264291331	1.876895009708049	-0.6638042508814291	-0.28427473874942333	1.7261926371639729	-0.6571511090294957													-0.2944100246293651	2.0498955685235045	-0.6181540889323969	-0.2627097188755921	2.11497854479894	-0.6136470618346499	-0.30804777705611497	2.0489703522970397	-0.5334270651743624	-0.26279216523519466	2.0491233398141557	-0.44512143554171557	-0.2732418745995896	2.1105628200964976	-0.5066788249992151	-0.27967023788743256	2.052176746331803	-0.7065663491673826	-0.21847993435287832	2.022318644030206	-0.7254461826522669	-0.22628728387060162	2.085920565515359	-0.727271344571261
45	1.5	-0.2814744558826154	1.8772324819427284	-0.6008034650282638	-0.2885273289144215	1.873849444260717	-0.5420885258422538	-0.2796785812969229	1.7223998385498815	-0.49168495174279275	-0.29275629158682925	1.556563569451173	-0.4336830566168926	-0.2423653133353147	1.528763876202064	-0.4259156220237592	-0.24898560331218397	1.5263142931242708	-0.4032893617245879	-0.34858848952811816	1.5533060781926975	-0.4008680551061525	-0.27243562836762797	1.880777238884817	-0.6643468941048478	-0.28452964470482883	1.7273778008365577	-0.6577949487351394													-0.2945881990321541	2.0487779080193813	-0.6181400781618384	-0.26464738953666694	2.116161128792545	-0.6114495459073089	-0.3082506533789041	2.0478951069188187	-0.5334396659638615	-0.26276536299375625	2.0492845966435955	-0.445162036307038	-0.27619865193757165	2.110076092379023	-0.5078176140994137	-0.2807955647339732	2.0531791533454293	-0.7014496003091896	-0.21787380072700743	2.025722096586552	-0.723631158758052	-0.23052771816075626	2.0909470722611347	-0.7241253001395386
